<svg width="124" height="22" viewBox="0 0 124 22" fill="none" xmlns="http://www.w3.org/2000/svg">
<g clip-path="url(#clip0_27_27802)">
<mask id="mask0_27_27802" style="mask-type:luminance" maskUnits="userSpaceOnUse" x="0" y="0" width="124" height="22">
<path d="M124 0.5H0V21.5H124V0.5Z" fill="white"/>
</mask>
<g mask="url(#mask0_27_27802)">
<path d="M113.777 21.4998C113.529 21.4371 113.281 21.3509 113.034 21.3274C111.392 21.1785 109.812 20.7632 108.301 20.1285C107.79 19.9169 107.31 19.6035 106.837 19.3136C106.76 19.2666 106.713 19.055 106.752 18.9688C107.287 17.7307 107.829 16.5083 108.371 15.2781C108.441 15.1214 108.503 14.9569 108.565 14.7845C110.075 15.8188 111.725 16.383 113.483 16.6729C114.745 16.8766 115.992 16.908 117.216 16.5083C118.076 16.2263 118.455 15.3251 117.928 14.6904C117.665 14.3848 117.231 14.1576 116.836 14.0401C115.365 13.6091 113.885 13.2408 112.406 12.849C111.151 12.5121 109.912 12.1203 108.882 11.2662C107.806 10.3807 107.178 9.26805 107.047 7.83409C106.961 6.96431 107.047 6.14155 107.287 5.32663C107.744 3.80648 108.712 2.7173 110.044 1.90238C111.244 1.16581 112.546 0.805361 113.924 0.664317C114.133 0.640809 113.928 0.664317 114.552 0.585958C115.38 0.585958 116.201 0.578125 117.03 0.578125C117.131 0.585958 117.03 0.578125 117.131 0.585958C117.828 0.69566 118.54 0.781854 119.23 0.915063C120.601 1.18148 121.925 1.60461 123.118 2.36469C122.506 3.84566 121.909 5.30312 121.313 6.74491C120.562 6.41581 119.888 6.0632 119.168 5.81245C117.828 5.35014 116.457 5.06021 115.024 5.24827C114.513 5.31096 114.025 5.37364 113.568 5.64006C112.979 5.98484 112.708 6.502 112.824 7.07402C112.956 7.70088 113.475 7.89678 113.963 8.03782C115.357 8.44528 116.774 8.77439 118.176 9.15051C119.253 9.44043 120.337 9.70685 121.29 10.3259C122.134 10.8744 122.909 11.5091 123.358 12.4494C123.853 13.4837 123.985 14.5729 123.83 15.7169C123.675 16.8453 123.249 17.8483 122.514 18.6867C121.05 20.3479 119.144 21.0923 116.999 21.3274C116.774 21.3509 116.558 21.4449 116.333 21.4998C115.481 21.4998 114.629 21.4998 113.777 21.4998Z" fill="white"/>
<path d="M10.3784 0.5C12.1831 0.711567 14.6615 1.32276 16.2648 2.20821C16.5281 2.35709 16.4739 2.50597 16.3887 2.7097C15.831 4.04179 15.2734 5.37388 14.708 6.74515C14.2433 6.53358 13.7631 6.29851 13.2829 6.09477C12.2295 5.65597 11.1375 5.35821 9.99119 5.24067C9.06177 5.14664 8.17108 5.18582 7.28813 5.49142C6.77695 5.6638 6.38194 5.9694 6.23479 6.55709C6.11861 7.02724 6.22704 7.41119 6.62204 7.68545C7.3346 8.16343 8.17108 8.29664 8.96883 8.52388C10.4946 8.94701 12.0437 9.27612 13.5307 9.79328C15.1495 10.3575 16.4894 11.3683 17.0161 13.1078C17.5969 15.0198 17.3181 16.8377 16.0944 18.4597C14.9946 19.9093 13.4688 20.6616 11.7648 21.0847C11.153 21.2336 10.5179 21.3041 9.89825 21.4138C9.15736 21.545 9.37157 21.5 8.94559 21.5C8.07039 21.5 8.9301 21.5 8.0549 21.5C7.47401 21.4608 7.06352 21.4216 7.02479 21.4138C6.18832 21.2806 5.35184 21.1709 4.51536 21.0063C3.04378 20.7086 1.62642 20.2619 0.363955 19.3922C0.255523 19.3138 0.11611 19.2903 -0.0078125 19.2354C-0.0078125 19.2119 -0.0078125 19.1806 -0.0078125 19.1571C0.332975 18.4205 0.681507 17.6918 1.01455 16.9552C1.33985 16.2343 1.64965 15.5134 1.97495 14.769C3.098 15.6075 4.33722 16.0541 5.60743 16.4145C6.17283 16.5791 6.7692 16.681 7.35783 16.728C8.0549 16.7828 8.75196 16.7593 9.45677 16.7358C10.0609 16.7201 10.6263 16.5791 11.1375 16.2108C11.6951 15.8034 11.7261 14.9022 11.1297 14.4791C10.4791 14.0168 9.72785 13.8366 8.98432 13.6407C7.4198 13.2175 5.84753 12.8336 4.2985 12.3713C3.05153 12.003 2.02916 11.2351 1.27788 10.1772C0.456897 9.04104 0.309739 7.72462 0.472387 6.34552C0.658271 4.8097 1.35534 3.58731 2.50162 2.59216C3.70986 1.55 5.0885 0.923134 6.62204 0.656716C7.03254 0.586194 7.20293 0.539179 7.9 0.5C8.72873 0.5 9.54972 0.5 10.3784 0.5Z" fill="white"/>
<path d="M78.5684 14.7377C79.3351 15.8739 80.0787 16.9866 80.83 18.0915C81.3876 18.9142 81.953 19.7448 82.5029 20.5754C82.5726 20.6773 82.6423 20.8497 82.6036 20.9359C82.5649 21.0221 82.3867 21.0847 82.2628 21.0847C80.4582 21.0926 78.6458 21.0926 76.8412 21.0847C76.7095 21.0847 76.5314 20.9829 76.4539 20.8732C75.3696 19.2903 74.293 17.7075 73.232 16.109C73.0693 15.8661 72.9067 15.7486 72.6123 15.7564C71.8378 15.7721 71.0711 15.7642 70.2501 15.7642C70.2501 17.543 70.2501 19.2982 70.2501 21.0769C68.2828 21.0769 66.3697 21.0769 64.4257 21.0769C64.4257 17.7937 64.4257 14.5105 64.4257 11.1959C64.5884 11.1959 64.7433 11.1959 64.8904 11.1959C67.7019 11.1959 70.5212 11.2194 73.3326 11.1803C73.9523 11.1724 74.5951 11.0157 75.1683 10.7806C75.9273 10.4672 76.2758 9.77766 76.4075 8.97057C76.5237 8.24967 76.4385 7.56795 76.0589 6.94109C75.6097 6.18885 74.8972 5.84407 74.0684 5.75004C73.4875 5.68736 72.8912 5.67169 72.3025 5.67169C69.8396 5.66385 67.3766 5.67169 64.9059 5.67169C64.751 5.67169 64.5961 5.67169 64.418 5.67169C64.418 4.09669 64.418 2.55303 64.418 0.93885C64.5341 0.93885 64.6736 0.93885 64.8052 0.93885C67.7097 0.93885 70.6141 0.899671 73.5185 0.954521C75.2767 0.985865 77.0116 1.26012 78.5994 2.11422C80.5821 3.18773 81.8523 4.81758 82.2163 7.06646C82.4874 8.71198 82.3325 10.334 81.5425 11.8463C80.9229 13.0295 80.0245 13.9228 78.8782 14.581C78.793 14.6124 78.6923 14.6672 78.5684 14.7377Z" fill="white"/>
<path d="M50.2829 7.1367C50.0661 7.6617 49.8415 8.1867 49.6324 8.71954C48.8269 10.749 48.0291 12.7863 47.2314 14.8158C46.635 16.336 46.0386 17.8639 45.4422 19.3841C45.2563 19.8621 45.0627 20.3401 44.8458 20.8024C44.7916 20.9277 44.629 21.0766 44.5128 21.0766C42.6385 21.0923 40.7719 21.0845 38.8976 21.0845C38.8743 21.0845 38.8511 21.0688 38.7969 21.0531C39.0757 20.4027 39.3468 19.7602 39.6256 19.1177C40.3769 17.3938 41.1204 15.6621 41.8794 13.9382C42.4991 12.5199 43.1342 11.1016 43.7538 9.68335C44.5748 7.79491 45.388 5.89864 46.209 4.01021C46.6195 3.06991 47.03 2.12961 47.4405 1.18932C47.5257 0.993421 47.6418 0.907227 47.8742 0.907227C49.5549 0.922898 51.2279 0.915062 52.9086 0.907227C53.1332 0.907227 53.2184 0.977749 53.3113 1.19715C53.9542 2.70163 54.6357 4.19827 55.2941 5.70275C56.0299 7.39529 56.7579 9.08782 57.4937 10.7804C58.0668 12.0811 58.6632 13.374 59.2286 14.6748C59.9721 16.3751 60.7002 18.0833 61.436 19.7916C61.6141 20.2147 61.8077 20.6222 62.0246 21.0923C61.5676 21.0923 61.1804 21.0923 60.7931 21.0923C59.2828 21.0923 57.7725 21.0923 56.2622 21.0923C56.0608 21.0923 55.9369 21.0766 55.844 20.8259C54.233 16.7199 52.5987 12.6139 50.9723 8.51581C50.7864 8.0535 50.5928 7.59902 50.4069 7.14454C50.3604 7.1367 50.3217 7.1367 50.2829 7.1367Z" fill="white"/>
<path d="M26.5509 15.9602C26.5509 17.6605 26.5509 19.3374 26.5509 21.0534C24.5991 21.0534 22.6783 21.0534 20.7266 21.0534C20.7266 17.7781 20.7266 14.5027 20.7266 11.1803C20.8815 11.1803 21.0364 11.1803 21.1835 11.1803C24.0105 11.1803 26.8375 11.196 29.6645 11.1725C30.408 11.1646 31.1361 11.0314 31.8021 10.5926C32.4915 10.1382 32.9407 8.8374 32.7548 8.05382C32.6464 7.60718 32.4915 7.14487 32.2591 6.75308C31.8486 6.06352 31.1283 5.83628 30.3848 5.74225C29.8194 5.6639 29.2385 5.65606 28.6576 5.65606C26.1792 5.64823 23.7007 5.65606 21.2223 5.65606C21.0673 5.65606 20.9124 5.65606 20.7343 5.65606C20.7343 4.07323 20.7343 2.5139 20.7343 0.923225C20.8815 0.923225 21.0209 0.923225 21.1603 0.923225C24.0105 0.923225 26.8685 0.884046 29.7187 0.938896C31.5698 0.97024 33.3899 1.23666 35.0551 2.17696C37.0224 3.28181 38.2151 4.92733 38.5482 7.18405C38.7728 8.73554 38.6876 10.2635 37.9828 11.6818C36.9914 13.6721 35.3339 14.871 33.2427 15.4587C32.2436 15.7408 31.229 15.8661 30.1834 15.8661C28.9829 15.8426 27.7901 15.921 26.5509 15.9602Z" fill="white"/>
<path d="M93.955 13.9617C93.3122 14.6435 92.7235 15.2703 92.1426 15.905C92.0729 15.9834 92.0729 16.1479 92.0729 16.2733C92.0652 17.7465 92.0652 19.2274 92.0729 20.7006C92.0729 20.9121 92.0807 21.0923 91.7864 21.0845C89.9817 21.0767 88.1771 21.0845 86.3415 21.0845C86.326 20.967 86.3105 20.8729 86.3105 20.7711C86.3105 19.008 86.3028 17.245 86.3183 15.4819C86.3183 15.3252 86.3957 15.1293 86.5042 15.0117C87.5807 13.8285 88.6728 12.6532 89.7494 11.4778C90.4232 10.7491 91.0893 10.0125 91.7631 9.28376C92.8165 8.1319 93.8776 6.98787 94.9386 5.836C95.6202 5.09943 96.3018 4.35503 96.9756 3.61063C97.7501 2.74869 98.5169 1.87891 99.2992 1.0248C99.3689 0.946446 99.5238 0.899432 99.6322 0.899432C101.514 0.891596 103.404 0.891596 105.286 0.899432C105.395 0.899432 105.596 0.97779 105.596 1.0248C105.604 1.15801 105.557 1.3304 105.472 1.42443C105.155 1.80055 104.821 2.15316 104.481 2.51361C103.652 3.39906 102.823 4.28451 102.002 5.17779C101.065 6.18861 100.136 7.2151 99.214 8.23376C98.7338 8.7666 98.2613 9.3151 97.7811 9.86361C98.4162 10.7099 99.0436 11.5483 99.6787 12.3789C100.26 13.139 100.848 13.8991 101.437 14.6591C102.467 15.9991 103.489 17.339 104.519 18.6789C105.007 19.3215 105.488 19.964 105.96 20.6144C106.022 20.6927 106.045 20.8494 106.006 20.9435C105.975 21.0062 105.828 21.0532 105.728 21.0532C103.729 21.061 101.723 21.061 99.7251 21.0532C99.6245 21.0532 99.485 20.9826 99.4231 20.9043C98.6486 19.9326 97.8895 18.9532 97.1305 17.9737C96.2166 16.8062 95.2949 15.6386 94.381 14.4711C94.2571 14.3379 94.1331 14.1812 93.955 13.9617Z" fill="white"/>
<path d="M86.3281 9.64419C86.3281 6.65874 86.3281 3.8065 86.3281 0.922922C86.4443 0.915086 86.545 0.90725 86.6457 0.90725C88.3264 0.90725 89.9993 0.915086 91.68 0.899414C91.9821 0.899414 92.0983 0.977772 92.0828 1.29904C92.0595 1.86322 92.0441 2.4274 92.0905 2.98374C92.1138 3.3677 91.9821 3.65762 91.742 3.9162C91.4399 4.25314 91.1379 4.59009 90.8281 4.91919C90.0226 5.78897 89.2093 6.65091 88.4038 7.52852C87.8462 8.13187 87.304 8.7509 86.7386 9.3621C86.6457 9.46396 86.5063 9.52665 86.3281 9.64419Z" fill="white"/>
</g>
</g>
<defs>
<clipPath id="clip0_27_27802">
<rect width="124" height="21" fill="white" transform="translate(0 0.5)"/>
</clipPath>
</defs>
</svg>
