<svg width="225" height="78" viewBox="0 0 225 78" fill="none" xmlns="http://www.w3.org/2000/svg">
<path d="M31.9309 32.9529C31.1077 32.618 30.1833 32.3219 29.1575 32.0642C28.2838 31.8453 27.2453 31.6457 26.0422 31.4653C24.8392 31.2721 23.5094 31.1755 22.0532 31.1755C20.2169 31.1755 18.7923 31.3237 17.7791 31.6199C16.7787 31.9032 16.2785 32.412 16.2785 33.1461C16.2785 33.5196 16.3924 33.8352 16.6203 34.0928C16.8484 34.3376 17.2156 34.55 17.7221 34.7304C18.2414 34.8978 18.9126 35.0523 19.7357 35.194C20.5588 35.3228 21.5593 35.4516 22.737 35.5804C25.3204 35.8767 27.5175 36.2566 29.3285 36.7203C31.1394 37.171 32.6084 37.7507 33.7355 38.459C34.8626 39.1545 35.6794 40.0046 36.1859 41.0092C36.7052 42.0011 36.9648 43.1795 36.9648 44.5447C36.9648 46.2062 36.5785 47.6166 35.806 48.7757C35.0463 49.9221 33.9824 50.8559 32.6147 51.5771C31.247 52.2984 29.6134 52.82 27.7139 53.142C25.827 53.464 23.7501 53.625 21.4833 53.625C20.2422 53.625 19.0836 53.5799 18.007 53.4897C16.9433 53.3997 15.9618 53.2773 15.0628 53.1226C14.1763 52.981 13.3658 52.8136 12.6312 52.6204C11.8968 52.4272 11.2446 52.2276 10.6747 52.0215C9.33237 51.545 8.21163 51.004 7.3125 50.3986L11.0736 44.8153C11.8715 45.1887 12.7896 45.5236 13.8281 45.8199C14.7018 46.0774 15.753 46.3093 16.9813 46.5153C18.2224 46.7214 19.5964 46.8245 21.1034 46.8245C22.3444 46.8245 23.4462 46.7923 24.4086 46.7279C25.3711 46.6506 26.1816 46.5282 26.84 46.3608C27.4985 46.1805 27.9988 45.9487 28.3407 45.6653C28.6827 45.3691 28.8537 44.9955 28.8537 44.5447C28.8537 44.197 28.7459 43.9136 28.5307 43.6946C28.328 43.4757 27.9418 43.289 27.3719 43.1344C26.8147 42.967 26.0359 42.8188 25.0354 42.69C24.0476 42.5484 22.7623 42.3874 21.1793 42.207C18.5452 41.9237 16.3861 41.5051 14.7018 40.9513C13.0176 40.3846 11.6878 39.7148 10.7127 38.942C9.75028 38.1564 9.08543 37.2741 8.71818 36.2952C8.35094 35.3163 8.16731 34.2666 8.16731 33.1461C8.16731 31.9354 8.41425 30.802 8.90814 29.7459C9.40202 28.6768 10.1872 27.7495 11.2636 26.9639C12.34 26.1653 13.733 25.5342 15.4427 25.0705C17.1649 24.6068 19.2417 24.375 21.6733 24.375C24.0288 24.375 26.0803 24.536 27.8278 24.858C29.5881 25.1671 31.0508 25.5084 32.2158 25.882C33.5708 26.3199 34.7296 26.8157 35.6921 27.3696L31.9309 32.9529Z" fill="url(#paint0_linear_27_27783)"/>
<path d="M211.904 32.9529C211.08 32.618 210.156 32.3219 209.13 32.0642C208.256 31.8453 207.218 31.6457 206.015 31.4653C204.812 31.2721 203.482 31.1755 202.026 31.1755C200.189 31.1755 198.765 31.3237 197.752 31.6199C196.751 31.9032 196.251 32.412 196.251 33.1461C196.251 33.5196 196.365 33.8352 196.593 34.0928C196.821 34.3376 197.189 34.55 197.694 34.7304C198.214 34.8978 198.885 35.0523 199.708 35.194C200.532 35.3228 201.532 35.4516 202.71 35.5804C205.293 35.8767 207.49 36.2566 209.301 36.7203C211.112 37.171 212.582 37.7507 213.708 38.459C214.835 39.1545 215.652 40.0046 216.159 41.0092C216.678 42.0011 216.937 43.1795 216.937 44.5447C216.937 46.2062 216.551 47.6166 215.778 48.7757C215.019 49.9221 213.955 50.8559 212.588 51.5771C211.22 52.2984 209.586 52.82 207.687 53.142C205.799 53.464 203.722 53.625 201.456 53.625C200.215 53.625 199.056 53.5799 197.98 53.4897C196.916 53.3997 195.935 53.2773 195.035 53.1226C194.149 52.981 193.339 52.8136 192.604 52.6204C191.869 52.4272 191.217 52.2276 190.648 52.0215C189.305 51.545 188.185 51.004 187.285 50.3986L191.046 44.8153C191.844 45.1887 192.762 45.5236 193.801 45.8199C194.674 46.0774 195.725 46.3093 196.953 46.5153C198.195 46.7214 199.569 46.8245 201.077 46.8245C202.317 46.8245 203.419 46.7923 204.382 46.7279C205.343 46.6506 206.154 46.5282 206.813 46.3608C207.471 46.1805 207.971 45.9487 208.313 45.6653C208.655 45.3691 208.827 44.9955 208.827 44.5447C208.827 44.197 208.718 43.9136 208.504 43.6946C208.3 43.4757 207.915 43.289 207.345 43.1344C206.788 42.967 206.009 42.8188 205.008 42.69C204.02 42.5484 202.735 42.3874 201.152 42.207C198.518 41.9237 196.359 41.5051 194.674 40.9513C192.99 40.3846 191.66 39.7148 190.685 38.942C189.723 38.1564 189.058 37.2741 188.69 36.2952C188.324 35.3163 188.14 34.2666 188.14 33.1461C188.14 31.9354 188.387 30.802 188.881 29.7459C189.374 28.6768 190.16 27.7495 191.236 26.9639C192.313 26.1653 193.706 25.5342 195.415 25.0705C197.138 24.6068 199.214 24.375 201.646 24.375C204.002 24.375 206.053 24.536 207.8 24.858C209.56 25.1671 211.024 25.5084 212.188 25.882C213.543 26.3199 214.702 26.8157 215.665 27.3696L211.904 32.9529Z" fill="url(#paint1_linear_27_27783)"/>
<path fill-rule="evenodd" clip-rule="evenodd" d="M82.5688 52.8521L84.9812 48.3699L88.3245 42.149L92.1996 34.9428L96.0748 42.149L99.418 48.3699L101.83 52.8521H110.454L95.5049 25.1477H88.8944L73.9448 52.8521H82.5688Z" fill="url(#paint2_linear_27_27783)"/>
<path fill-rule="evenodd" clip-rule="evenodd" d="M61.0301 39.1544H50.7725H42.7373V52.8521H50.7725L50.7914 45.9743H61.0301C62.9424 45.9743 64.6393 45.7425 66.121 45.2788C67.6026 44.8152 68.85 44.1389 69.8631 43.2502C70.8763 42.3616 71.6424 41.2732 72.1616 39.9853C72.6935 38.6844 72.9594 37.2096 72.9594 35.561C72.9594 33.9123 72.6935 32.4441 72.1616 31.1561C71.6424 29.8552 70.8763 28.7604 69.8631 27.8717C68.85 26.983 67.6026 26.3069 66.121 25.8432C64.6393 25.3795 62.9424 25.1477 61.0301 25.1477H42.7373V31.9676H50.7725H61.0301C61.7013 31.9676 62.2775 32.0577 62.7588 32.238C63.24 32.4055 63.6325 32.6502 63.9365 32.9722C64.2531 33.2813 64.481 33.6613 64.6203 34.112C64.7723 34.5499 64.8482 35.0329 64.8482 35.561C64.8482 36.089 64.7723 36.5785 64.6203 37.0293C64.481 37.4672 64.2531 37.8472 63.9365 38.1692C63.6325 38.4783 63.24 38.723 62.7588 38.9032C62.2775 39.0707 61.7013 39.1544 61.0301 39.1544Z" fill="url(#paint3_linear_27_27783)"/>
<path fill-rule="evenodd" clip-rule="evenodd" d="M115.638 38.0725V52.8521H123.673V44.2935H132.716L137.484 52.8521H146.108L140.446 42.6707C141.017 42.4646 141.618 42.1619 142.251 41.7626C142.897 41.3633 143.486 40.8546 144.017 40.2363C144.55 39.6052 144.986 38.8646 145.329 38.0145C145.683 37.1517 145.86 36.1535 145.86 35.0201C145.86 33.2297 145.551 31.7099 144.929 30.4606C144.309 29.1983 143.448 28.1745 142.346 27.3887C141.257 26.6031 139.959 26.0364 138.453 25.6886C136.945 25.328 135.312 25.1477 133.551 25.1477H115.638V31.9676H123.673H133.551C135.007 31.9676 136.071 32.2059 136.743 32.6824C137.413 33.1589 137.749 33.9382 137.749 35.0201C137.749 36.1149 137.413 36.9005 136.743 37.377C136.071 37.8407 135.007 38.0725 133.551 38.0725H123.673H115.638Z" fill="url(#paint4_linear_27_27783)"/>
<path fill-rule="evenodd" clip-rule="evenodd" d="M183.032 25.1477H172.528L160.275 35.445L152.24 41.1058V52.8521H160.275V44.2742L163.258 41.7626L173.401 52.8521H183.222L168.804 37.1066L183.032 25.1477ZM160.275 30.4896V25.1477H152.24V36.1598L160.275 30.4896Z" fill="url(#paint5_linear_27_27783)"/>
<defs>
<linearGradient id="paint0_linear_27_27783" x1="85.0293" y1="53.625" x2="85.0293" y2="14.625" gradientUnits="userSpaceOnUse">
<stop offset="0.0775355" stop-color="#F2B5DE"/>
<stop offset="0.579447" stop-color="#97B2FF"/>
</linearGradient>
<linearGradient id="paint1_linear_27_27783" x1="85.0291" y1="53.625" x2="85.0291" y2="14.625" gradientUnits="userSpaceOnUse">
<stop offset="0.0775355" stop-color="#F2B5DE"/>
<stop offset="0.579447" stop-color="#97B2FF"/>
</linearGradient>
<linearGradient id="paint2_linear_27_27783" x1="85.0292" y1="53.6249" x2="85.0292" y2="14.6249" gradientUnits="userSpaceOnUse">
<stop offset="0.0775355" stop-color="#F2B5DE"/>
<stop offset="0.579447" stop-color="#97B2FF"/>
</linearGradient>
<linearGradient id="paint3_linear_27_27783" x1="85.0294" y1="53.6249" x2="85.0294" y2="14.6249" gradientUnits="userSpaceOnUse">
<stop offset="0.0775355" stop-color="#F2B5DE"/>
<stop offset="0.579447" stop-color="#97B2FF"/>
</linearGradient>
<linearGradient id="paint4_linear_27_27783" x1="85.0294" y1="53.6249" x2="85.0294" y2="14.6249" gradientUnits="userSpaceOnUse">
<stop offset="0.0775355" stop-color="#F2B5DE"/>
<stop offset="0.579447" stop-color="#97B2FF"/>
</linearGradient>
<linearGradient id="paint5_linear_27_27783" x1="85.0293" y1="53.6249" x2="85.0293" y2="14.6249" gradientUnits="userSpaceOnUse">
<stop offset="0.0775355" stop-color="#F2B5DE"/>
<stop offset="0.579447" stop-color="#97B2FF"/>
</linearGradient>
</defs>
</svg>
