<svg width="32" height="32" viewBox="0 0 32 32" fill="none" xmlns="http://www.w3.org/2000/svg">
<path fill-rule="evenodd" clip-rule="evenodd" d="M16 32C24.8366 32 32 24.8366 32 16C32 7.16344 24.8366 0 16 0C7.16344 0 0 7.16344 0 16C0 24.8366 7.16344 32 16 32ZM8.16088 16C8.16088 14.3826 9.47202 13.0715 11.0894 13.0715H14.0358C14.588 13.0715 15.0358 12.6238 15.0358 12.0715C15.0358 11.5192 14.588 11.0715 14.0358 11.0715H11.0894C8.36745 11.0715 6.16088 13.2781 6.16088 16C6.16088 18.7219 8.36745 20.9285 11.0894 20.9285H14.0358C14.588 20.9285 15.0358 20.4808 15.0358 19.9285C15.0358 19.3762 14.588 18.9285 14.0358 18.9285H11.0894C9.47202 18.9285 8.16088 17.6174 8.16088 16ZM17.9642 11.0715C17.412 11.0715 16.9642 11.5192 16.9642 12.0715C16.9642 12.6238 17.412 13.0715 17.9642 13.0715H20.9106C22.528 13.0715 23.8391 14.3826 23.8391 16C23.8391 17.6174 22.528 18.9285 20.9106 18.9285H17.9642C17.412 18.9285 16.9642 19.3762 16.9642 19.9285C16.9642 20.4808 17.412 20.9285 17.9642 20.9285H20.9106C23.6326 20.9285 25.8391 18.7219 25.8391 16C25.8391 13.2781 23.6326 11.0715 20.9106 11.0715H17.9642ZM12.0715 15C11.5192 15 11.0715 15.4477 11.0715 16C11.0715 16.5523 11.5192 17 12.0715 17H19.9285C20.4808 17 20.9285 16.5523 20.9285 16C20.9285 15.4477 20.4808 15 19.9285 15H12.0715Z" fill="#97B2FF"/>
</svg>
